<?xml version="1.0" encoding="UTF-8"?>
<svg id="Calque_2" data-name="Calque 2" xmlns="http://www.w3.org/2000/svg" viewBox="0 0 585.9 585.58">
  <g id="Calque_5" data-name="Calque 5">
    <path d="M286.46,140.76s8-91,75-123,120-11,120-11c0,0,74.42,19.52,97,89,13,40,5,73,5,73l-9,30s-5,14-11,32-7,36-7,52-1,25-1,37-1,48-1,59,4,72,6,88,10,83,12,92,4.86,26.28,4.86,26.28c0,0-8,3-18.86-5.28-38.76-29.56-166-102-229-116s-87-21-109-23-82-2-95-5S15.46,405.76,3.46,321.76s9-125,35-158,86-52,114-54,54,1,64,4,44.5,17.5,44.5,17.5l25.5,9.5Z"/>
  </g>
</svg>